<?xml version="1.0" encoding="UTF-8" standalone="no"?>
<!-- Created with Inkscape (http://www.inkscape.org/) -->

<svg
   width="56.366947mm"
   height="6.6449838mm"
   viewBox="0 0 56.366947 6.6449838"
   version="1.1"
   id="svg5"
   xmlns="http://www.w3.org/2000/svg"
   xmlns:svg="http://www.w3.org/2000/svg">
  <g
     id="g2418"
     transform="translate(-16.099092,-16.498478)">
    <g
       id="g5427">
      <g
         aria-label="Rocket Validator"
         id="text58178-8-9-8-8-5-1"
         style="font-size:6.8299px;line-height:0;letter-spacing:-0.264583px;word-spacing:0px;fill:#000000;fill-opacity:1;stroke:#0b0e0a;stroke-width:0;stroke-linecap:round;stroke-linejoin:round;stroke-dasharray:none;stop-color:#000000">
        <path
           d="m 24.666678,21.814564 h -0.491752 v -4.835569 h 1.420619 q 0.355155,0 0.65567,0.0683 0.307346,0.0683 0.525903,0.225386 0.225386,0.150258 0.348324,0.396135 0.122939,0.245876 0.122939,0.601031 0,0.266366 -0.09562,0.484923 -0.09562,0.218556 -0.259536,0.382474 -0.163918,0.157088 -0.389304,0.252706 -0.225387,0.09562 -0.491753,0.122939 l 1.413789,2.301676 h -0.601031 l -1.338661,-2.260697 h -0.819588 z m 0,-2.684151 h 0.853738 q 0.594201,0 0.915207,-0.211727 0.321005,-0.218557 0.321005,-0.64884 0,-0.239047 -0.08879,-0.402964 -0.08879,-0.163918 -0.245876,-0.266366 -0.157088,-0.102449 -0.382475,-0.150258 -0.225386,-0.04781 -0.498582,-0.04781 h -0.874228 z"
           style="font-family:'Avenir Next';-inkscape-font-specification:'Avenir Next';letter-spacing:-0.259292px;fill:#000000;fill-opacity:1;stroke-width:0;stroke-dasharray:none"
           id="path3403" />
        <path
           d="m 31.073355,20.216367 q 0,0.361985 -0.129768,0.66933 -0.122938,0.307346 -0.348325,0.532733 -0.225387,0.225386 -0.539562,0.355154 -0.314175,0.122939 -0.68982,0.122939 -0.368815,0 -0.68299,-0.122939 -0.314175,-0.129768 -0.539562,-0.355154 -0.225387,-0.225387 -0.355155,-0.532733 -0.122938,-0.307345 -0.122938,-0.66933 0,-0.361984 0.122938,-0.66933 0.129768,-0.307345 0.355155,-0.532732 0.225387,-0.225387 0.539562,-0.348325 0.314175,-0.129768 0.68299,-0.129768 0.375645,0 0.68982,0.129768 0.314175,0.122938 0.539562,0.348325 0.225387,0.225387 0.348325,0.532732 0.129768,0.307346 0.129768,0.66933 z m -0.491753,0 q 0,-0.266366 -0.08879,-0.498582 -0.08196,-0.239047 -0.239047,-0.409794 -0.157088,-0.177578 -0.382474,-0.280026 -0.225387,-0.102449 -0.505413,-0.102449 -0.280026,0 -0.505413,0.102449 -0.218556,0.102448 -0.375644,0.280026 -0.157088,0.170747 -0.245876,0.409794 -0.08196,0.232216 -0.08196,0.498582 0,0.266366 0.08196,0.505413 0.08879,0.232216 0.245876,0.409794 0.157088,0.170747 0.375644,0.273196 0.225387,0.09562 0.505413,0.09562 0.280026,0 0.505413,-0.09562 0.225386,-0.102449 0.382474,-0.273196 0.157088,-0.177578 0.239047,-0.409794 0.08879,-0.239047 0.08879,-0.505413 z"
           style="font-family:'Avenir Next';-inkscape-font-specification:'Avenir Next';letter-spacing:-0.259292px;fill:#000000;fill-opacity:1;stroke-width:0;stroke-dasharray:none"
           id="path3405" />
        <path
           d="m 34.112892,19.34897 q -0.116108,-0.184407 -0.341495,-0.300516 -0.218557,-0.122938 -0.478093,-0.122938 -0.280026,0 -0.505413,0.102449 -0.225386,0.09562 -0.389304,0.273196 -0.157088,0.170747 -0.245876,0.409794 -0.08196,0.232216 -0.08196,0.505412 0,0.273196 0.08196,0.505413 0.08879,0.232216 0.245876,0.409794 0.157088,0.170747 0.382474,0.273196 0.225387,0.09562 0.505413,0.09562 0.307345,0 0.519072,-0.116108 0.211727,-0.116108 0.348325,-0.300516 l 0.348325,0.259537 q -0.204897,0.252706 -0.505412,0.402964 -0.293686,0.150258 -0.71031,0.150258 -0.389304,0 -0.70348,-0.122939 -0.314175,-0.129768 -0.539562,-0.355154 -0.218557,-0.225387 -0.341495,-0.532733 -0.122938,-0.307345 -0.122938,-0.66933 0,-0.361984 0.122938,-0.66933 0.122938,-0.307345 0.341495,-0.532732 0.225387,-0.225387 0.539562,-0.348325 0.314176,-0.129768 0.70348,-0.129768 0.321005,0 0.64884,0.143428 0.334666,0.136598 0.539563,0.409794 z"
           style="font-family:'Avenir Next';-inkscape-font-specification:'Avenir Next';letter-spacing:-0.259292px;fill:#000000;fill-opacity:1;stroke-width:0;stroke-dasharray:none"
           id="path3407" />
        <path
           d="m 35.444954,20.05928 h 0.02049 l 1.475258,-1.441109 h 0.66933 l -1.611856,1.461598 1.775774,1.734795 h -0.68299 l -1.625516,-1.680156 h -0.02049 v 1.680156 H 34.980521 V 16.65116 h 0.464433 z"
           style="font-family:'Avenir Next';-inkscape-font-specification:'Avenir Next';letter-spacing:-0.259292px;fill:#000000;fill-opacity:1;stroke-width:0;stroke-dasharray:none"
           id="path3409" />
        <path
           d="m 40.506131,19.970491 q -0.02049,-0.450774 -0.293685,-0.744459 -0.266367,-0.300516 -0.764949,-0.300516 -0.232217,0 -0.430284,0.08879 -0.198067,0.08196 -0.348325,0.232216 -0.150258,0.143428 -0.239046,0.334666 -0.08879,0.184407 -0.102449,0.389304 z m 0.471263,0.150258 q 0,0.04781 0,0.102448 0,0.05464 -0.0068,0.116108 h -2.650001 q 0.0068,0.239047 0.09562,0.450774 0.08879,0.211727 0.245876,0.368814 0.157088,0.157088 0.368815,0.252707 0.211727,0.08879 0.457603,0.08879 0.361985,0 0.621521,-0.163917 0.266366,-0.170748 0.402964,-0.389305 l 0.348325,0.273196 q -0.286856,0.361985 -0.635181,0.519073 -0.341495,0.157088 -0.737629,0.157088 -0.355155,0 -0.6625,-0.122939 -0.300516,-0.129768 -0.519073,-0.355154 -0.218556,-0.225387 -0.348324,-0.532733 -0.122939,-0.307345 -0.122939,-0.66933 0,-0.361984 0.122939,-0.66933 0.122938,-0.307345 0.341495,-0.532732 0.218556,-0.225387 0.512242,-0.348325 0.293686,-0.129768 0.635181,-0.129768 0.375644,0 0.6625,0.129768 0.286856,0.122938 0.478093,0.341495 0.191237,0.211727 0.286856,0.498583 0.102448,0.286855 0.102448,0.614691 z"
           style="font-family:'Avenir Next';-inkscape-font-specification:'Avenir Next';letter-spacing:-0.259292px;fill:#000000;fill-opacity:1;stroke-width:0;stroke-dasharray:none"
           id="path3411" />
        <path
           d="M 43.156367,19.007475 H 42.25482 v 1.864563 q 0,0.177577 0.03415,0.293685 0.03415,0.116109 0.09562,0.184408 0.0683,0.06147 0.157088,0.08879 0.08879,0.02049 0.191237,0.02049 0.09562,0 0.198067,-0.02732 0.109278,-0.02732 0.204897,-0.07513 l 0.02049,0.402965 q -0.122938,0.04781 -0.259536,0.0683 -0.129769,0.02732 -0.286856,0.02732 -0.129768,0 -0.273196,-0.03415 -0.143428,-0.03415 -0.266366,-0.129768 -0.122939,-0.09562 -0.204897,-0.259537 -0.07513,-0.163917 -0.07513,-0.430283 v -1.994331 h -0.662501 v -0.389304 h 0.662501 v -0.901547 h 0.464433 v 0.901547 h 0.901547 z"
           style="font-family:'Avenir Next';-inkscape-font-specification:'Avenir Next';letter-spacing:-0.259292px;fill:#000000;fill-opacity:1;stroke-width:0;stroke-dasharray:none"
           id="path3413" />
        <path
           d="M 47.345106,21.814564 H 46.177193 L 44.34678,16.978995 h 1.311341 l 1.120103,3.428609 h 0.02732 l 1.113273,-3.428609 h 1.290851 z"
           style="font-weight:bold;font-family:'Avenir Next';-inkscape-font-specification:'Avenir Next Bold';fill:#000000;fill-opacity:1;stroke-width:0;stroke-dasharray:none"
           id="path3415" />
        <path
           d="m 51.000867,20.332475 h -0.143428 q -0.184407,0 -0.375644,0.02049 -0.184407,0.01366 -0.334665,0.06147 -0.143428,0.04781 -0.239047,0.143428 -0.09562,0.08879 -0.09562,0.239047 0,0.09562 0.04098,0.163917 0.04781,0.0683 0.116109,0.109279 0.0683,0.04098 0.157087,0.06147 0.08879,0.01366 0.170748,0.01366 0.341495,0 0.519072,-0.184408 0.184407,-0.191237 0.184407,-0.512242 z m -2.055799,-1.454768 q 0.300515,-0.286856 0.696649,-0.430284 0.402964,-0.143428 0.819588,-0.143428 0.430284,0 0.72397,0.109279 0.300515,0.102448 0.484923,0.327835 0.184407,0.218557 0.266366,0.560052 0.08879,0.334665 0.08879,0.799098 v 1.714305 h -1.024485 v -0.361985 h -0.02049 q -0.129768,0.211727 -0.396135,0.327835 -0.259536,0.116109 -0.566881,0.116109 -0.204897,0 -0.423454,-0.05464 -0.218557,-0.05464 -0.402964,-0.177577 -0.177577,-0.122938 -0.293686,-0.327835 -0.116108,-0.204897 -0.116108,-0.505413 0,-0.368814 0.198067,-0.594201 0.204897,-0.225387 0.519072,-0.348325 0.321006,-0.122938 0.71031,-0.163918 0.389304,-0.04098 0.758119,-0.04098 v -0.05464 q 0,-0.252706 -0.177578,-0.368815 -0.177577,-0.122938 -0.437113,-0.122938 -0.239047,0 -0.464433,0.102449 -0.218557,0.102448 -0.375645,0.245876 z"
           style="font-weight:bold;font-family:'Avenir Next';-inkscape-font-specification:'Avenir Next Bold';fill:#000000;fill-opacity:1;stroke-width:0;stroke-dasharray:none"
           id="path3417" />
        <path
           d="M 52.607678,21.814564 V 16.65116 h 1.133763 v 5.163404 z"
           style="font-weight:bold;font-family:'Avenir Next';-inkscape-font-specification:'Avenir Next Bold';fill:#000000;fill-opacity:1;stroke-width:0;stroke-dasharray:none"
           id="path3419" />
        <path
           d="m 55.580456,17.32732 q 0,0.129768 -0.05464,0.245876 -0.04781,0.109278 -0.136598,0.191237 -0.08196,0.08196 -0.204897,0.129768 -0.116108,0.04781 -0.245876,0.04781 -0.273196,0 -0.457603,-0.177578 -0.184407,-0.184407 -0.184407,-0.437113 0,-0.122939 0.04781,-0.232217 0.04781,-0.116108 0.136598,-0.198067 0.08879,-0.08196 0.204897,-0.129768 0.116108,-0.05464 0.252706,-0.05464 0.129768,0 0.245876,0.04781 0.122939,0.04781 0.204897,0.129768 0.08879,0.08196 0.136598,0.198067 0.05464,0.109278 0.05464,0.239047 z m -1.202063,4.487244 v -3.40129 h 1.120104 v 3.40129 z"
           style="font-weight:bold;font-family:'Avenir Next';-inkscape-font-specification:'Avenir Next Bold';fill:#000000;fill-opacity:1;stroke-width:0;stroke-dasharray:none"
           id="path3421" />
        <path
           d="M 58.696672,21.814564 V 21.37062 h -0.01366 q -0.163918,0.259536 -0.471263,0.402964 -0.300516,0.136598 -0.642011,0.136598 -0.382474,0 -0.68299,-0.150257 -0.300516,-0.150258 -0.512242,-0.396135 -0.204897,-0.252706 -0.314176,-0.580541 -0.109278,-0.327835 -0.109278,-0.68299 0,-0.355155 0.109278,-0.67616 0.116108,-0.327835 0.321005,-0.573712 0.211727,-0.245876 0.505413,-0.389304 0.300516,-0.143428 0.66933,-0.143428 0.375645,0 0.635181,0.143428 0.259536,0.143428 0.402964,0.314175 h 0.01366 V 16.65116 h 1.120103 v 5.163404 z m -0.04098,-1.707475 q 0,-0.163918 -0.06147,-0.321005 -0.05464,-0.157088 -0.163918,-0.280026 -0.102448,-0.122939 -0.252706,-0.198067 -0.150258,-0.07513 -0.341495,-0.07513 -0.198067,0 -0.348325,0.07513 -0.150258,0.07513 -0.252706,0.198067 -0.102449,0.116108 -0.157088,0.273196 -0.04781,0.157087 -0.04781,0.321005 0,0.163917 0.04781,0.327835 0.05464,0.157088 0.157088,0.280026 0.102448,0.122938 0.252706,0.198067 0.150258,0.07513 0.348325,0.07513 0.191237,0 0.341495,-0.07513 0.150258,-0.07513 0.252706,-0.198067 0.109279,-0.122938 0.163918,-0.280026 0.06147,-0.157088 0.06147,-0.321005 z"
           style="font-weight:bold;font-family:'Avenir Next';-inkscape-font-specification:'Avenir Next Bold';fill:#000000;fill-opacity:1;stroke-width:0;stroke-dasharray:none"
           id="path3423" />
        <path
           d="m 62.359275,20.332475 h -0.143428 q -0.184407,0 -0.375644,0.02049 -0.184407,0.01366 -0.334665,0.06147 -0.143428,0.04781 -0.239047,0.143428 -0.09562,0.08879 -0.09562,0.239047 0,0.09562 0.04098,0.163917 0.04781,0.0683 0.116108,0.109279 0.0683,0.04098 0.157088,0.06147 0.08879,0.01366 0.170748,0.01366 0.341495,0 0.519072,-0.184408 0.184407,-0.191237 0.184407,-0.512242 z m -2.055799,-1.454768 q 0.300515,-0.286856 0.696649,-0.430284 0.402964,-0.143428 0.819588,-0.143428 0.430284,0 0.72397,0.109279 0.300515,0.102448 0.484923,0.327835 0.184407,0.218557 0.266366,0.560052 0.08879,0.334665 0.08879,0.799098 v 1.714305 h -1.024485 v -0.361985 h -0.02049 q -0.129768,0.211727 -0.396135,0.327835 -0.259536,0.116109 -0.566881,0.116109 -0.204897,0 -0.423454,-0.05464 -0.218557,-0.05464 -0.402964,-0.177577 -0.177577,-0.122938 -0.293686,-0.327835 -0.116108,-0.204897 -0.116108,-0.505413 0,-0.368814 0.198067,-0.594201 0.204897,-0.225387 0.519072,-0.348325 0.321006,-0.122938 0.71031,-0.163918 0.389304,-0.04098 0.758119,-0.04098 v -0.05464 q 0,-0.252706 -0.177578,-0.368815 -0.177577,-0.122938 -0.437113,-0.122938 -0.239047,0 -0.464433,0.102449 -0.218557,0.102448 -0.375645,0.245876 z"
           style="font-weight:bold;font-family:'Avenir Next';-inkscape-font-specification:'Avenir Next Bold';fill:#000000;fill-opacity:1;stroke-width:0;stroke-dasharray:none"
           id="path3425" />
        <path
           d="m 65.099844,19.253351 v 1.297681 q 0,0.239047 0.08879,0.361985 0.09562,0.116108 0.334665,0.116108 0.08196,0 0.170747,-0.01366 0.09562,-0.01366 0.157088,-0.04098 l 0.01366,0.819588 q -0.116109,0.04098 -0.293686,0.0683 -0.177577,0.03415 -0.355155,0.03415 -0.341495,0 -0.573711,-0.08196 -0.232217,-0.08879 -0.375645,-0.245877 -0.136598,-0.163917 -0.198067,-0.382474 -0.06147,-0.225387 -0.06147,-0.498583 V 19.25335 h -0.546392 v -0.840077 h 0.539562 v -0.894717 h 1.099614 v 0.894717 h 0.799098 v 0.840077 z"
           style="font-weight:bold;font-family:'Avenir Next';-inkscape-font-specification:'Avenir Next Bold';fill:#000000;fill-opacity:1;stroke-width:0;stroke-dasharray:none"
           id="path3427" />
        <path
           d="m 69.766447,20.100259 q 0,0.416624 -0.150258,0.758119 -0.150257,0.334665 -0.409794,0.573711 -0.259536,0.232217 -0.601031,0.361985 -0.341495,0.129768 -0.730799,0.129768 -0.382475,0 -0.730799,-0.129768 -0.341495,-0.129768 -0.601032,-0.361985 -0.252706,-0.239046 -0.402964,-0.573711 -0.150257,-0.341495 -0.150257,-0.758119 0,-0.416624 0.150257,-0.751289 0.150258,-0.334665 0.402964,-0.566882 0.259537,-0.232216 0.601032,-0.355155 0.348324,-0.122938 0.730799,-0.122938 0.389304,0 0.730799,0.122938 0.341495,0.122939 0.601031,0.355155 0.259537,0.232217 0.409794,0.566882 0.150258,0.334665 0.150258,0.751289 z m -1.079124,0 q 0,-0.163918 -0.05464,-0.321005 -0.05464,-0.157088 -0.157088,-0.273196 -0.102448,-0.122939 -0.252706,-0.198067 -0.150258,-0.07513 -0.348325,-0.07513 -0.198067,0 -0.348325,0.07513 -0.150258,0.07513 -0.252706,0.198067 -0.09562,0.116108 -0.150258,0.273196 -0.04781,0.157087 -0.04781,0.321005 0,0.163917 0.04781,0.321005 0.05464,0.157088 0.157088,0.286856 0.102448,0.122938 0.252706,0.198067 0.150258,0.07513 0.348325,0.07513 0.198067,0 0.348325,-0.07513 0.150257,-0.07513 0.252706,-0.198067 0.102448,-0.129768 0.150258,-0.286856 0.05464,-0.157088 0.05464,-0.321005 z"
           style="font-weight:bold;font-family:'Avenir Next';-inkscape-font-specification:'Avenir Next Bold';fill:#000000;fill-opacity:1;stroke-width:0;stroke-dasharray:none"
           id="path3429" />
        <path
           d="m 72.418232,19.32848 q -0.07513,-0.02049 -0.150258,-0.02732 -0.0683,-0.0068 -0.136598,-0.0068 -0.225387,0 -0.382474,0.08196 -0.150258,0.08196 -0.245877,0.198067 -0.08879,0.116108 -0.129768,0.252706 -0.04098,0.136598 -0.04098,0.239046 v 1.748455 h -1.120104 v -3.40129 h 1.079124 v 0.491752 h 0.01366 q 0.129768,-0.259536 0.368815,-0.423453 0.239046,-0.163918 0.553222,-0.163918 0.0683,0 0.129768,0.0068 0.0683,0.0068 0.109278,0.02049 z"
           style="font-weight:bold;font-family:'Avenir Next';-inkscape-font-specification:'Avenir Next Bold';fill:#000000;fill-opacity:1;stroke-width:0;stroke-dasharray:none"
           id="path3431" />
      </g>
      <g
         id="g4619">
        <path
           style="font-variation-settings:normal;fill:none;fill-opacity:1;stroke:#4ad024;stroke-width:0.51;stroke-linecap:round;stroke-linejoin:round;stroke-miterlimit:4;stroke-dasharray:none;stroke-dashoffset:0;stroke-opacity:1;stop-color:#000000"
           d="m 18.393212,20.827128 -2.03912,2.06137 0.008,-1.75006"
           id="path57130-9-9-9-5-0-2" />
        <path
           d="m 19.389792,20.685908 -0.78501,-0.78513 c 0.13925,-0.36131 0.31458,-0.70764 0.52334,-1.03375 0.61994,-0.99137 2.16154,-2.37714 3.38963,-2.05527 0.27529,1.02647 -0.71536,2.43475 -2.08128,3.35073 -0.33052,0.20903 -0.68117,0.38438 -1.04668,0.52342 z"
           id="path6516-1-76-6-8-9-1"
           style="font-variation-settings:normal;vector-effect:none;fill:#000000;fill-opacity:1;stroke:#000000;stroke-width:0.529;stroke-linecap:butt;stroke-linejoin:round;stroke-miterlimit:4;stroke-dasharray:none;stroke-dashoffset:0;stroke-opacity:1;-inkscape-stroke:none;stop-color:#000000" />
        <path
           d="m 18.608932,19.890978 h -1.32292 c 0,0 0.14552,-0.80169 0.52917,-1.05834 0.42862,-0.28575 1.32291,0 1.32291,0"
           id="path6518-3-8-0-2-3-8"
           style="font-variation-settings:normal;vector-effect:none;fill:#000000;fill-opacity:1;stroke:#000000;stroke-width:0.529167;stroke-linecap:round;stroke-linejoin:round;stroke-miterlimit:4;stroke-dasharray:none;stroke-dashoffset:0;stroke-opacity:1;-inkscape-stroke:none;stop-color:#000000" />
        <path
           d="m 19.426942,20.674228 v 1.32292 c 0,0 0.80169,-0.14552 1.05834,-0.52917 0.28575,-0.42862 0,-1.32291 0,-1.32291"
           id="path6520-8-2-2-9-7-7"
           style="font-variation-settings:normal;vector-effect:none;fill:#000000;fill-opacity:1;stroke:#000000;stroke-width:0.529167;stroke-linecap:round;stroke-linejoin:round;stroke-miterlimit:4;stroke-dasharray:none;stroke-dashoffset:0;stroke-opacity:1;-inkscape-stroke:none;stop-color:#000000" />
        <circle
           style="fill:#ffffff;stroke-width:0.11;stroke-linecap:round;stroke-linejoin:round;stop-color:#000000"
           id="path5307"
           cx="21.648907"
           cy="17.638123"
           r="0.4294315" />
      </g>
    </g>
  </g>
  <defs
     id="defs2" />
</svg>
